<svg xmlns="http://www.w3.org/2000/svg"  viewBox="0 0 50 50" width="50px" height="50px"><path fill='#ffffff' d="M 25 2 C 12.309295 2 2 12.309295 2 25 C 2 37.690705 12.309295 48 25 48 C 37.690705 48 48 37.690705 48 25 C 48 12.309295 37.690705 2 25 2 z M 24 4.0253906 L 24 6.0371094 C 22.62027 6.1138122 21.283392 6.3364423 20.003906 6.6855469 A 1.0001 1.0001 0 0 0 19.302734 7.9140625 L 19.861328 9.9609375 C 17.972406 10.607342 16.25706 11.580703 14.761719 12.839844 L 13.298828 11.308594 A 1.0001 1.0001 0 0 0 11.882812 11.277344 C 10.867753 12.248427 9.9435083 13.347727 9.1347656 14.572266 L 7.3984375 13.558594 C 10.971911 8.0677851 17.032839 4.3510615 24 4.0253906 z M 26 4.0332031 C 32.965163 4.3602984 39.028502 8.0684185 42.601562 13.558594 L 40.867188 14.572266 C 40.057849 13.346173 39.131083 12.246219 38.117188 11.275391 A 1.0001 1.0001 0 0 0 36.701172 11.306641 L 35.238281 12.839844 C 33.742506 11.580519 32.027974 10.607122 30.138672 9.9609375 L 30.697266 7.9140625 A 1.0001 1.0001 0 0 0 29.996094 6.6855469 C 28.715926 6.3364872 27.379542 6.1138246 26 6.0371094 L 26 4.0332031 z M 24.880859 8.0058594 A 1.0001 1.0001 0 0 0 25.126953 8.0058594 C 26.278202 8.0216531 27.377836 8.2419776 28.470703 8.4765625 L 27.978516 10.277344 A 1.0001 1.0001 0 0 0 28.681641 11.505859 C 30.96135 12.126665 33.005743 13.301188 34.664062 14.886719 A 1.0001 1.0001 0 0 0 36.080078 14.855469 L 37.367188 13.507812 C 38.15927 14.353345 38.946655 15.207633 39.564453 16.234375 C 40.182176 17.260263 40.569081 18.355098 40.945312 19.451172 L 39.253906 19.929688 L 39.154297 19.958984 A 1.0001 1.0001 0 0 0 38.460938 21.193359 C 38.804355 22.411268 39 23.68287 39 25 C 39 26.31713 38.804391 27.588599 38.460938 28.806641 A 1.0001 1.0001 0 0 0 39.152344 30.041016 L 40.945312 30.548828 C 40.569083 31.644902 40.182176 32.739737 39.564453 33.765625 C 38.946123 34.792521 38.159627 35.648351 37.367188 36.494141 L 36.078125 35.144531 A 1.0001 1.0001 0 0 0 34.664062 35.113281 C 33.005741 36.698812 30.959396 37.873335 28.679688 38.494141 A 1.0001 1.0001 0 0 0 27.978516 39.722656 L 28.470703 41.521484 C 27.374112 41.757073 26.271284 41.979624 25.115234 41.994141 A 1.0001 1.0001 0 0 0 24.984375 41.986328 A 1.0001 1.0001 0 0 0 24.873047 41.994141 C 23.721759 41.978323 22.622451 41.757667 21.529297 41.523438 C 21.725944 40.802574 21.917191 40.105775 22.021484 39.724609 A 1.0001 1.0001 0 0 0 21.318359 38.496094 C 19.038895 37.875355 16.994401 36.698948 15.335938 35.113281 A 1.0001 1.0001 0 0 0 13.921875 35.144531 L 12.632812 36.494141 C 11.840321 35.648314 11.053613 34.792813 10.435547 33.765625 C 9.8176183 32.738666 9.4308957 31.644634 9.0546875 30.548828 L 10.847656 30.041016 A 1.0001 1.0001 0 0 0 11.539062 28.806641 C 11.195609 27.588599 11 26.31713 11 25 C 11 23.68287 11.194792 22.410968 11.539062 21.193359 A 1.0001 1.0001 0 0 0 10.849609 19.958984 L 9.0546875 19.453125 C 9.4309372 18.356919 9.8177527 17.26038 10.435547 16.234375 C 11.053877 15.207479 11.840373 14.351649 12.632812 13.505859 L 13.921875 14.855469 A 1.0001 1.0001 0 0 0 15.335938 14.888672 C 16.9944 13.303005 19.04085 12.126598 21.320312 11.505859 A 1.0001 1.0001 0 0 0 22.021484 10.277344 L 21.529297 8.4785156 C 22.624645 8.2431948 23.726243 8.0208423 24.880859 8.0058594 z M 25 13 C 23.908845 13 22.849634 13.146713 21.841797 13.421875 A 1.0001 1.0001 0 0 0 21.140625 14.648438 L 22.259766 18.753906 C 21.833732 18.942815 21.436397 19.165386 21.060547 19.431641 L 18.126953 16.361328 A 1.0001 1.0001 0 0 0 18.111328 16.345703 L 18.107422 16.341797 A 1.0001 1.0001 0 0 0 16.708984 16.324219 C 15.182436 17.783163 14.03977 19.642885 13.449219 21.734375 A 1.0001 1.0001 0 0 0 14.154297 22.972656 L 14.15625 22.972656 A 1.0001 1.0001 0 0 0 14.167969 22.976562 C 14.175869 22.978762 14.183593 22.981075 14.195312 22.984375 C 14.230484 22.994275 14.281842 23.008744 14.347656 23.027344 C 14.479288 23.064544 14.666916 23.117854 14.892578 23.181641 C 15.343903 23.309225 15.945196 23.478314 16.546875 23.648438 C 17.336118 23.871592 17.675294 23.96854 18.125 24.095703 C 18.085104 24.398252 18 24.687919 18 25 C 18 25.657035 18.09081 26.294397 18.261719 26.898438 L 18.253906 26.869141 L 18.019531 25.933594 L 14.140625 27.029297 A 1.0001 1.0001 0 0 0 13.412109 27.992188 L 13.412109 27.994141 A 1.0001 1.0001 0 0 0 13.449219 28.265625 C 14.039218 30.354071 15.179743 32.209681 16.703125 33.667969 L 16.707031 33.671875 A 1.0001 1.0001 0 0 0 18.123047 33.642578 L 21.0625 30.568359 C 21.438001 30.834007 21.834246 31.057318 22.259766 31.246094 C 22.143627 31.67195 21.990289 32.23688 21.835938 32.802734 C 21.525692 33.940091 21.214844 35.076172 21.214844 35.076172 A 1.0001 1.0001 0 0 0 21.195312 35.166016 A 1.0001 1.0001 0 0 0 21.841797 36.580078 C 22.849197 36.854034 23.908845 37 25 37 C 25.990375 37 26.941229 36.839599 27.863281 36.613281 A 1.0001 1.0001 0 0 0 28.142578 36.583984 L 28.181641 36.574219 L 28.181641 36.570312 C 28.187241 36.568812 28.193639 36.569942 28.199219 36.568359 A 1.0001 1.0001 0 0 0 27.693359 34.634766 L 28.601562 34.402344 L 27.740234 31.248047 C 28.166577 31.059014 28.563378 30.834665 28.939453 30.568359 C 28.949153 30.578469 28.953031 30.58343 28.962891 30.59375 C 29.286954 30.932957 29.718375 31.383858 30.150391 31.835938 C 31.014422 32.740096 31.878906 33.644531 31.878906 33.644531 A 1.0001 1.0001 0 0 0 31.892578 33.658203 L 31.894531 33.660156 A 1.0001 1.0001 0 0 0 33.291016 33.667969 L 33.291016 33.675781 C 33.301386 33.665881 33.308029 33.652528 33.318359 33.642578 A 1.0001 1.0001 0 0 0 33.421875 33.511719 C 34.826144 32.122063 35.886083 30.392317 36.470703 28.449219 A 1.0001 1.0001 0 0 0 36.527344 28.320312 A 1.0001 1.0001 0 0 0 36.527344 28.318359 C 36.532744 28.299579 36.545461 28.284435 36.550781 28.265625 L 36.541016 28.271484 A 1.0001 1.0001 0 0 0 35.869141 27.035156 L 35.867188 27.035156 L 35.867188 27.033203 L 35.863281 27.033203 L 31.875 25.904297 C 31.914933 25.601615 32 25.312395 32 25 C 32 24.687278 31.91502 24.398415 31.875 24.095703 L 34.941406 23.228516 L 34.640625 22.328125 A 1.0002221 1.0002221 0 1 0 36.552734 21.740234 C 36.548434 21.724844 36.537603 21.712636 36.533203 21.697266 L 36.539062 21.695312 L 36.537109 21.689453 A 1.0001 1.0001 0 0 0 36.447266 21.496094 C 35.84809 19.540474 34.792809 17.783467 33.365234 16.394531 A 1.0001 1.0001 0 0 0 33.359375 16.388672 L 33.291016 16.324219 A 1.0001 1.0001 0 0 0 31.876953 16.355469 L 28.949219 19.419922 C 28.571889 19.152684 28.167952 18.93556 27.740234 18.746094 L 28.853516 14.667969 A 1.0001 1.0001 0 0 0 28.353516 13.519531 L 28.267578 13.474609 A 1.0001 1.0001 0 0 0 28.056641 13.392578 C 27.079761 13.136191 26.054999 13 25 13 z M 25 15 C 25.565694 15 26.094365 15.121254 26.632812 15.210938 L 25.613281 18.945312 A 1.0001 1.0001 0 0 0 26.316406 20.173828 C 27.109516 20.389753 27.825732 20.796689 28.412109 21.34375 C 28.413209 21.344744 28.414916 21.344661 28.416016 21.345703 L 28.445312 21.376953 A 1.0001 1.0001 0 0 0 29.867188 21.353516 L 32.544922 18.552734 C 33.254811 19.38312 33.815153 20.320301 34.224609 21.351562 L 30.572266 22.384766 L 30.570312 22.384766 A 1.0001 1.0001 0 0 0 29.804688 23.121094 L 29.802734 23.125 A 1.0001 1.0001 0 0 0 29.814453 23.648438 C 29.934764 24.078912 30 24.530638 30 25 C 30 25.474127 29.93475 25.928874 29.8125 26.361328 A 1.0001 1.0001 0 0 0 30.501953 27.595703 L 34.222656 28.648438 C 33.813288 29.67932 33.248982 30.611509 32.539062 31.441406 C 32.208025 31.095029 32.068783 30.948084 31.597656 30.455078 C 31.165672 30.003032 30.73214 29.55001 30.408203 29.210938 C 30.246235 29.0414 30.111951 28.901572 30.017578 28.802734 C 29.970388 28.753314 29.933258 28.713774 29.908203 28.6875 C 29.895673 28.67436 29.886889 28.664543 29.880859 28.658203 C 29.874859 28.651903 29.869141 28.646484 29.869141 28.646484 A 1.0001 1.0001 0 0 0 28.455078 28.615234 C 27.861829 29.182617 27.130145 29.602895 26.316406 29.824219 L 26.318359 29.826172 A 1.0001 1.0001 0 0 0 25.578125 30.789062 A 1.0001 1.0001 0 0 0 25.615234 31.052734 L 25.613281 31.052734 L 25.623047 31.085938 L 26.630859 34.78125 C 26.091687 34.871028 25.56566 35 25 35 C 24.43454 35 23.907987 34.873011 23.369141 34.783203 C 23.486413 34.353318 23.567246 34.055382 23.765625 33.328125 C 23.920752 32.759429 24.075053 32.190317 24.191406 31.763672 C 24.249586 31.550349 24.298078 31.372601 24.332031 31.248047 C 24.349011 31.185767 24.361964 31.137032 24.371094 31.103516 C 24.375694 31.086756 24.380393 31.075326 24.382812 31.066406 C 24.385213 31.057506 24.384766 31.052734 24.384766 31.052734 A 1.0001 1.0001 0 0 0 23.683594 29.824219 C 22.870838 29.602936 22.13836 29.181964 21.544922 28.615234 A 1.0001 1.0001 0 0 0 20.132812 28.646484 L 17.460938 31.443359 C 16.7496 30.612009 16.185142 29.677458 15.775391 28.644531 L 19.498047 27.59375 A 1.0001 1.0001 0 0 0 20.195312 26.388672 L 20.193359 26.384766 A 1.0001 1.0001 0 0 0 20.185547 26.355469 C 20.064493 25.927506 20 25.472965 20 25 C 20 24.525873 20.06552 24.06933 20.1875 23.638672 A 1.0001 1.0001 0 0 0 19.498047 22.404297 C 19.498047 22.404297 18.295189 22.064864 17.091797 21.724609 C 16.613651 21.589415 16.180073 21.465418 15.777344 21.351562 C 16.186559 20.321064 16.749431 19.388269 17.458984 18.558594 L 20.128906 21.351562 A 1.0001 1.0001 0 0 0 20.144531 21.367188 L 20.148438 21.369141 A 1.0001 1.0001 0 0 0 21.546875 21.384766 C 22.140124 20.817383 22.871517 20.396048 23.683594 20.175781 A 1.0001 1.0001 0 0 0 24.421875 19.212891 L 24.421875 19.210938 A 1.0001 1.0001 0 0 0 24.384766 18.949219 L 24.386719 18.949219 L 24.376953 18.916016 L 23.369141 15.21875 C 23.907826 15.128619 24.434094 15 25 15 z M 6.3867188 15.283203 L 8.1191406 16.294922 C 7.5290571 17.448354 7.0724862 18.636553 6.7324219 19.835938 A 1.0001 1.0001 0 0 0 7.4238281 21.070312 L 9.4746094 21.650391 C 9.2352506 22.738856 9 23.833368 9 25 C 9 26.167278 9.2335923 27.262812 9.4726562 28.351562 L 7.421875 28.931641 A 1.0001 1.0001 0 0 0 6.7324219 30.166016 C 7.0726587 31.366007 7.527319 32.553596 8.1171875 33.707031 L 6.3867188 34.716797 C 4.8684123 31.810814 4 28.509835 4 25 C 4 21.490165 4.8684123 18.189186 6.3867188 15.283203 z M 43.613281 15.283203 C 45.131588 18.189186 46 21.490165 46 25 C 46 28.509835 45.131588 31.810814 43.613281 34.716797 L 41.880859 33.705078 C 42.470943 32.552188 42.927514 31.365399 43.267578 30.166016 A 1.0001 1.0001 0 0 0 42.578125 28.931641 L 40.527344 28.351562 C 40.766408 27.262811 41 26.167278 41 25 C 41 23.832722 40.766415 22.737484 40.527344 21.648438 L 42.576172 21.068359 A 1.0001 1.0001 0 0 0 43.267578 19.833984 C 42.927514 18.634601 42.470943 17.447812 41.880859 16.294922 L 43.613281 15.283203 z M 40.865234 35.427734 L 42.601562 36.441406 C 39.028089 41.932215 32.967161 45.648938 26 45.974609 L 26 43.962891 C 27.37973 43.886188 28.716608 43.663558 29.996094 43.314453 A 1.0001 1.0001 0 0 0 30.697266 42.085938 L 30.138672 40.039062 C 32.027473 39.392871 33.742845 38.419195 35.238281 37.160156 L 36.701172 38.693359 A 1.0001 1.0001 0 0 0 38.117188 38.724609 C 39.132247 37.753526 40.056492 36.652689 40.865234 35.427734 z M 9.1328125 35.429688 C 9.9422244 36.654865 10.869538 37.754376 11.882812 38.724609 A 1.0001 1.0001 0 0 0 13.296875 38.693359 L 14.761719 37.160156 C 16.257452 38.419675 17.971809 39.394586 19.861328 40.041016 C 19.619869 40.925657 19.302734 42.087891 19.302734 42.087891 A 1.0001 1.0001 0 0 0 20.003906 43.316406 C 21.283771 43.664537 22.620374 43.886412 24 43.962891 L 24 45.974609 C 17.032839 45.648938 10.971911 41.932215 7.3984375 36.441406 L 9.1328125 35.429688 z"/></svg>